# xmcd CD database file
#
# Track frame offsets:
#	150
#	19830
#	33757
#	49672
#	68047
#	80887
#	93787
#	111260
#	127935
#	142532
#	157002
#	171767
#	186175
#	201077
#
# Disc length: 2875 seconds
#
# Revision: 0
# Processed by: cddbd v1.5.1PL2 Copyright (c) Steve Scherf et al.
# Submitted via: CDex 1.51
#
DISCID=b00b390e
DTITLE=Twin Piano - Oldish Love Song Vol.05
DYEAR=1900
DGENRE=・シェセェコ
TTITLE0=I Can't Stop Loving You
TTITLE1=Knock Three Times
TTITLE2=Because Mucho
TTITLE3=How Can I Tell Her
TTITLE4=Rhythm Of Rain
TTITLE5=Am I That Easy To Forget
TTITLE6=Will You Still Love Me Tomorrow
TTITLE7=A White Shade Of Pale
TTITLE8=Where Did All The Good Time Go
TTITLE9=All I Have To Do Is Dream
TTITLE10=Whispering Pine
TTITLE11=Rain And Tears
TTITLE12=Tack Me Home Country Road
TTITLE13=Unchained Melody
EXTD=
EXTT0=
EXTT1=
EXTT2=
EXTT3=
EXTT4=
EXTT5=
EXTT6=
EXTT7=
EXTT8=
EXTT9=
EXTT10=
EXTT11=
EXTT12=
EXTT13=
PLAYORDER=
